<svg width="385" height="91" viewBox="0 0 385 91" fill="none" xmlns="http://www.w3.org/2000/svg">
<g filter="url(#filter0_d_2476_3111)">
<rect x="8" y="4" width="369" height="75" rx="8" fill="white"/>
<path d="M75.097 52.0454H32.7244V53.4999H75.097V52.0454Z" fill="#333333"/>
<path d="M71.566 49.1359H72.9785C73.3531 49.1359 73.7123 48.9826 73.9772 48.7099C74.2421 48.4371 74.3909 48.0671 74.3909 47.6814V41.136L71.2836 33.1361L70.5067 31.1412C70.402 30.8717 70.2213 30.6406 69.988 30.4777C69.7547 30.3148 69.4793 30.2275 69.1974 30.2271H34.8431C34.4685 30.2271 34.1092 30.3803 33.8444 30.6531C33.5795 30.9258 33.4307 31.2958 33.4307 31.6816V47.6814C33.4307 48.0671 33.5795 48.4371 33.8444 48.7099C34.1092 48.9826 34.4685 49.1359 34.8431 49.1359H71.566Z" fill="#F7E646"/>
<path d="M71.2836 33.1361H33.4307V31.6816C33.4307 31.2958 33.5795 30.9258 33.8444 30.6531C34.1092 30.3803 34.4685 30.2271 34.8431 30.2271H69.1974C69.4793 30.2275 69.7547 30.3148 69.988 30.4777C70.2213 30.6406 70.402 30.8717 70.5067 31.1412L71.2836 33.1361Z" fill="#F7931E"/>
<path d="M74.2862 41.1361H65.9162C65.7289 41.1361 65.5493 41.0595 65.4169 40.9231C65.2844 40.7867 65.21 40.6017 65.21 40.4089V33.1362H71.2834L74.3519 41.0365C74.3562 41.0475 74.3578 41.0595 74.3565 41.0713C74.3553 41.0831 74.3512 41.0944 74.3447 41.1042C74.3382 41.1141 74.3295 41.1221 74.3193 41.1277C74.3091 41.1332 74.2978 41.1361 74.2862 41.1361ZM36.6085 36.0453H40.4926V41.8634H36.6085C36.5148 41.8634 36.425 41.8251 36.3588 41.7569C36.2926 41.6887 36.2554 41.5962 36.2554 41.4998V36.4089C36.2554 36.3125 36.2926 36.22 36.3588 36.1518C36.425 36.0836 36.5148 36.0453 36.6085 36.0453Z" fill="#75D7F9"/>
<path d="M41.199 42.5905H36.6086C36.3277 42.5905 36.0582 42.4756 35.8596 42.271C35.6609 42.0664 35.5493 41.7889 35.5493 41.4996V36.4088C35.5493 36.1194 35.6609 35.842 35.8596 35.6374C36.0582 35.4328 36.3277 35.3179 36.6086 35.3179H41.199V42.5905ZM36.9617 41.136H39.7866V36.7724H36.9617V41.136Z" fill="#F7E646"/>
<path d="M44.7299 36.0454H40.4927V41.8635H44.7299V36.0454Z" fill="#75D7F9"/>
<path d="M45.4363 42.5905H39.7866V35.3179H45.4363V42.5905ZM41.199 41.136H44.0239V36.7724H41.199V41.136Z" fill="#F7E646"/>
<path d="M48.9672 36.0454H44.73V41.8635H48.9672V36.0454Z" fill="#75D7F9"/>
<path d="M49.6736 42.5905H44.0239V35.3179H49.6736V42.5905ZM45.4363 41.136H48.2612V36.7724H45.4363V41.136Z" fill="#F7E646"/>
<path d="M58.1479 36.0454H53.9106V41.8635H58.1479V36.0454Z" fill="#75D7F9"/>
<path d="M58.8543 42.5905H53.2046V35.3179H58.8543V42.5905ZM54.617 41.136H57.4419V36.7724H54.617V41.136Z" fill="#F7E646"/>
<path d="M58.1479 36.0454H62.0321C62.1258 36.0454 62.2156 36.0837 62.2818 36.1519C62.348 36.2201 62.3852 36.3126 62.3852 36.409V41.4999C62.3852 41.5963 62.348 41.6888 62.2818 41.757C62.2156 41.8252 62.1258 41.8635 62.0321 41.8635H58.1479V36.0454Z" fill="#75D7F9"/>
<path d="M62.0323 42.5905H57.4419V35.3179H62.0323C62.3132 35.3179 62.5827 35.4328 62.7813 35.6374C62.98 35.842 63.0916 36.1194 63.0916 36.4088V41.4996C63.0916 41.7889 62.98 42.0664 62.7813 42.271C62.5827 42.4756 62.3132 42.5905 62.0323 42.5905ZM58.8543 41.136H61.6792V36.7724H58.8543V41.136Z" fill="#F7E646"/>
<path d="M39.7864 52.7726C41.7366 52.7726 43.3175 51.1446 43.3175 49.1363C43.3175 47.128 41.7366 45.5 39.7864 45.5C37.8363 45.5 36.2554 47.128 36.2554 49.1363C36.2554 51.1446 37.8363 52.7726 39.7864 52.7726Z" fill="#545656"/>
<path d="M39.7865 49.8637C40.1766 49.8637 40.4927 49.5381 40.4927 49.1364C40.4927 48.7348 40.1766 48.4092 39.7865 48.4092C39.3965 48.4092 39.0803 48.7348 39.0803 49.1364C39.0803 49.5381 39.3965 49.8637 39.7865 49.8637Z" fill="#F2F2F2"/>
<path d="M39.7864 50.5907C39.5071 50.5907 39.234 50.5054 39.0017 50.3456C38.7695 50.1857 38.5884 49.9586 38.4815 49.6928C38.3746 49.427 38.3467 49.1346 38.4012 48.8524C38.4557 48.5703 38.5902 48.3111 38.7877 48.1077C38.9852 47.9042 39.2369 47.7657 39.5109 47.7096C39.7849 47.6535 40.0689 47.6823 40.327 47.7924C40.585 47.9025 40.8056 48.0889 40.9608 48.3281C41.116 48.5673 41.1989 48.8485 41.1989 49.1362C41.1989 49.5219 41.0501 49.8919 40.7852 50.1647C40.5203 50.4375 40.161 50.5907 39.7864 50.5907Z" fill="#F2F2F2"/>
<path d="M68.035 52.7726C69.9851 52.7726 71.566 51.1446 71.566 49.1363C71.566 47.128 69.9851 45.5 68.035 45.5C66.0848 45.5 64.5039 47.128 64.5039 49.1363C64.5039 51.1446 66.0848 52.7726 68.035 52.7726Z" fill="#545656"/>
<path d="M68.0351 49.8637C68.4251 49.8637 68.7413 49.5381 68.7413 49.1364C68.7413 48.7348 68.4251 48.4092 68.0351 48.4092C67.645 48.4092 67.3289 48.7348 67.3289 49.1364C67.3289 49.5381 67.645 49.8637 68.0351 49.8637Z" fill="#F2F2F2"/>
<path d="M68.035 50.5907C67.7556 50.5907 67.4826 50.5054 67.2503 50.3456C67.018 50.1857 66.837 49.9586 66.7301 49.6928C66.6232 49.427 66.5952 49.1346 66.6497 48.8524C66.7042 48.5703 66.8387 48.3111 67.0362 48.1077C67.2338 47.9042 67.4854 47.7657 67.7594 47.7096C68.0334 47.6535 68.3174 47.6823 68.5755 47.7924C68.8336 47.9025 69.0542 48.0889 69.2094 48.3281C69.3646 48.5673 69.4474 48.8485 69.4474 49.1362C69.4474 49.5219 69.2986 49.8919 69.0337 50.1647C68.7688 50.4375 68.4096 50.5907 68.035 50.5907Z" fill="#F2F2F2"/>
<path d="M74.3908 43.3179H71.5659V44.7724H74.3908V43.3179Z" fill="#F2F2F2"/>
<path d="M53.9108 36.0454H48.9673V49.1361H53.9108V36.0454Z" fill="#EFD30A"/>
<path d="M52.4983 41.8633H50.3796V43.3178H52.4983V41.8633Z" fill="#CCCCCC"/>
<path d="M71.7616 32.4091L71.1648 30.8716C71.0086 30.4659 70.7374 30.1181 70.3864 29.8734C70.0355 29.6288 69.6211 29.4987 69.1973 29.5H34.843C34.2811 29.5 33.7422 29.7299 33.3449 30.139C32.9476 30.5482 32.7244 31.1032 32.7244 31.6818V47.6816C32.7244 48.2602 32.9476 48.8152 33.3449 49.2243C33.7422 49.6335 34.2811 49.8634 34.843 49.8634H35.6128C35.7464 50.6759 36.1016 51.4325 36.6368 52.0452H32.7244V53.4997H75.097V52.0452H71.1846C71.7198 51.4325 72.0749 50.6759 72.2086 49.8634H72.9784C73.5403 49.8634 74.0792 49.6335 74.4765 49.2243C74.8738 48.8152 75.097 48.2602 75.097 47.6816V41.2155L75.1479 41.126L71.7616 32.4091ZM73.3477 40.409H65.9163V33.8636H70.8054L72.3513 37.8432L73.3477 40.409ZM34.1368 31.6818C34.1368 31.4889 34.2112 31.3039 34.3436 31.1675C34.4761 31.0312 34.6557 30.9545 34.843 30.9545H69.1973C69.2691 30.9541 69.3405 30.9649 69.4092 30.9865C69.5095 31.0188 69.6016 31.0738 69.6787 31.1474C69.7558 31.221 69.816 31.3114 69.8548 31.412L70.2404 32.4091H34.1368V31.6818ZM36.9616 49.1361C36.9616 48.5608 37.1273 47.9983 37.4377 47.5199C37.7481 47.0415 38.1893 46.6687 38.7055 46.4485C39.2216 46.2283 39.7896 46.1707 40.3376 46.283C40.8855 46.3952 41.3889 46.6723 41.7839 47.0791C42.179 47.4859 42.448 48.0043 42.557 48.5686C42.666 49.1329 42.6101 49.7178 42.3963 50.2494C42.1825 50.7809 41.8204 51.2353 41.3559 51.5549C40.8913 51.8746 40.3452 52.0452 39.7865 52.0452C39.0373 52.0452 38.3188 51.7387 37.789 51.1931C37.2592 50.6476 36.9616 49.9076 36.9616 49.1361ZM43.9602 49.8634H63.8612C63.9949 50.6759 64.35 51.4325 64.8852 52.0452H42.9362C43.4714 51.4325 43.8265 50.6759 43.9602 49.8634ZM48.261 41.1362H45.4362V36.7726H48.261V41.1362ZM49.6734 42.5907V36.7726H53.2045V48.4088H49.6734V42.5907ZM54.6169 36.7726H57.4417V41.1362H54.6169V36.7726ZM65.2101 49.1361C65.2101 48.5608 65.3757 47.9983 65.6861 47.5199C65.9965 47.0415 66.4377 46.6687 66.9539 46.4485C67.4701 46.2283 68.038 46.1707 68.586 46.283C69.134 46.3952 69.6373 46.6723 70.0324 47.0791C70.4274 47.4859 70.6965 48.0043 70.8055 48.5686C70.9145 49.1329 70.8585 49.7178 70.6447 50.2494C70.4309 50.7809 70.0688 51.2353 69.6043 51.5549C69.1398 51.8746 68.5936 52.0452 68.0349 52.0452C67.2857 52.0452 66.5672 51.7387 66.0374 51.1931C65.5077 50.6476 65.2101 49.9076 65.2101 49.1361ZM72.9784 48.4088H72.2086C72.0426 47.3925 71.5323 46.4696 70.7682 45.804C70.0041 45.1384 69.0357 44.7732 68.0349 44.7732C67.0341 44.7732 66.0657 45.1384 65.3016 45.804C64.5375 46.4696 64.0272 47.3925 63.8612 48.4088H54.6169V42.5907H62.0321C62.3131 42.5907 62.5825 42.4758 62.7812 42.2712C62.9798 42.0666 63.0914 41.7892 63.0914 41.4999V36.409C63.0914 36.1197 62.9798 35.8422 62.7812 35.6376C62.5825 35.433 62.3131 35.3181 62.0321 35.3181H36.6085C36.3276 35.3181 36.0581 35.433 35.8595 35.6376C35.6608 35.8422 35.5492 36.1197 35.5492 36.409V41.4999C35.5492 41.7892 35.6608 42.0666 35.8595 42.2712C36.0581 42.4758 36.3276 42.5907 36.6085 42.5907H48.261V48.4088H43.9602C43.7942 47.3925 43.2839 46.4696 42.5198 45.804C41.7557 45.1384 40.7873 44.7732 39.7865 44.7732C38.7857 44.7732 37.8173 45.1384 37.0532 45.804C36.2891 46.4696 35.7788 47.3925 35.6128 48.4088H34.843C34.6557 48.4088 34.4761 48.3322 34.3436 48.1958C34.2112 48.0595 34.1368 47.8745 34.1368 47.6816V33.8636H64.5038V40.409C64.5038 40.7947 64.6527 41.1647 64.9175 41.4375C65.1824 41.7102 65.5417 41.8635 65.9163 41.8635H73.6846V43.318H71.566V44.7725H73.6846V47.6816C73.6846 47.8745 73.6102 48.0595 73.4777 48.1958C73.3453 48.3322 73.1657 48.4088 72.9784 48.4088ZM58.8542 41.1362V36.7726H61.679V41.1362H58.8542ZM44.0237 36.7726V41.1362H41.1989V36.7726H44.0237ZM39.7865 36.7726V41.1362H36.9616V36.7726H39.7865Z" fill="black"/>
<path d="M39.7864 47.6816C39.5071 47.6816 39.234 47.7669 39.0017 47.9268C38.7695 48.0866 38.5884 48.3138 38.4815 48.5795C38.3746 48.8453 38.3467 49.1378 38.4012 49.4199C38.4557 49.7021 38.5902 49.9613 38.7877 50.1647C38.9852 50.3681 39.2369 50.5066 39.5109 50.5627C39.7849 50.6189 40.0689 50.5901 40.327 50.48C40.585 50.3699 40.8056 50.1835 40.9608 49.9443C41.116 49.7051 41.1989 49.4238 41.1989 49.1362C41.1989 48.7504 41.0501 48.3804 40.7852 48.1077C40.5203 47.8349 40.161 47.6816 39.7864 47.6816ZM68.0349 47.6816C67.7555 47.6816 67.4824 47.7669 67.2502 47.9268C67.0179 48.0866 66.8369 48.3138 66.73 48.5795C66.6231 48.8453 66.5951 49.1378 66.6496 49.4199C66.7041 49.7021 66.8386 49.9613 67.0361 50.1647C67.2337 50.3681 67.4853 50.5066 67.7593 50.5627C68.0333 50.6189 68.3173 50.5901 68.5754 50.48C68.8335 50.3699 69.0541 50.1835 69.2093 49.9443C69.3645 49.7051 69.4473 49.4238 69.4473 49.1362C69.4473 48.7504 69.2985 48.3804 69.0336 48.1077C68.7687 47.8349 68.4095 47.6816 68.0349 47.6816Z" fill="black"/>
<path d="M52.4983 41.8633H50.3796V43.3178H52.4983V41.8633Z" fill="black"/>
<path d="M145.944 49.5V33.66H152.489C152.643 33.66 152.841 33.6673 153.083 33.682C153.325 33.6893 153.548 33.7113 153.754 33.748C154.67 33.8873 155.426 34.1917 156.02 34.661C156.621 35.1303 157.065 35.7243 157.351 36.443C157.644 37.1543 157.791 37.9463 157.791 38.819C157.791 40.1097 157.464 41.2207 156.812 42.152C156.159 43.076 155.158 43.648 153.809 43.868L152.676 43.967H148.595V49.5H145.944ZM155.041 49.5L151.917 43.054L154.612 42.46L158.044 49.5H155.041ZM148.595 41.492H152.379C152.525 41.492 152.69 41.4847 152.874 41.47C153.057 41.4553 153.226 41.426 153.38 41.382C153.82 41.272 154.164 41.0777 154.414 40.799C154.67 40.5203 154.85 40.205 154.953 39.853C155.063 39.501 155.118 39.1563 155.118 38.819C155.118 38.4817 155.063 38.137 154.953 37.785C154.85 37.4257 154.67 37.1067 154.414 36.828C154.164 36.5493 153.82 36.355 153.38 36.245C153.226 36.201 153.057 36.1753 152.874 36.168C152.69 36.1533 152.525 36.146 152.379 36.146H148.595V41.492ZM165.714 49.83C164.526 49.83 163.489 49.5623 162.601 49.027C161.714 48.4917 161.025 47.7547 160.533 46.816C160.049 45.87 159.807 44.7847 159.807 43.56C159.807 42.3133 160.057 41.2207 160.555 40.282C161.054 39.3433 161.747 38.61 162.634 38.082C163.522 37.554 164.548 37.29 165.714 37.29C166.91 37.29 167.951 37.5577 168.838 38.093C169.726 38.6283 170.415 39.369 170.906 40.315C171.398 41.2537 171.643 42.3353 171.643 43.56C171.643 44.792 171.394 45.881 170.895 46.827C170.404 47.7657 169.715 48.5027 168.827 49.038C167.94 49.566 166.902 49.83 165.714 49.83ZM165.714 47.344C166.77 47.344 167.555 46.992 168.068 46.288C168.582 45.584 168.838 44.6747 168.838 43.56C168.838 42.4087 168.578 41.492 168.057 40.81C167.537 40.1207 166.756 39.776 165.714 39.776C165.003 39.776 164.416 39.9373 163.954 40.26C163.5 40.5753 163.162 41.019 162.942 41.591C162.722 42.1557 162.612 42.812 162.612 43.56C162.612 44.7113 162.873 45.6317 163.393 46.321C163.921 47.003 164.695 47.344 165.714 47.344ZM178.522 49.841C177.642 49.841 176.916 49.6943 176.344 49.401C175.772 49.1077 175.317 48.7337 174.98 48.279C174.643 47.8243 174.393 47.3403 174.232 46.827C174.071 46.3137 173.964 45.8297 173.913 45.375C173.869 44.913 173.847 44.539 173.847 44.253V37.62H176.531V43.34C176.531 43.7067 176.557 44.121 176.608 44.583C176.659 45.0377 176.777 45.4777 176.96 45.903C177.151 46.321 177.429 46.6657 177.796 46.937C178.17 47.2083 178.672 47.344 179.303 47.344C179.64 47.344 179.974 47.289 180.304 47.179C180.634 47.069 180.931 46.882 181.195 46.618C181.466 46.3467 181.683 45.9763 181.844 45.507C182.005 45.0377 182.086 44.4437 182.086 43.725L183.659 44.396C183.659 45.408 183.461 46.3247 183.065 47.146C182.676 47.9673 182.101 48.6237 181.338 49.115C180.575 49.599 179.637 49.841 178.522 49.841ZM182.405 49.5V45.815H182.086V37.62H184.748V49.5H182.405ZM194.801 49.5C194.017 49.6467 193.247 49.709 192.491 49.687C191.743 49.6723 191.072 49.5367 190.478 49.28C189.884 49.016 189.433 48.6017 189.125 48.037C188.854 47.5237 188.711 46.9993 188.696 46.464C188.682 45.9287 188.674 45.3237 188.674 44.649V34.32H191.314V44.495C191.314 44.9717 191.318 45.3897 191.325 45.749C191.34 46.1083 191.417 46.4017 191.556 46.629C191.82 47.069 192.242 47.3147 192.821 47.366C193.401 47.4173 194.061 47.388 194.801 47.278V49.5ZM186.518 39.699V37.62H194.801V39.699H186.518ZM202.155 49.83C200.953 49.83 199.897 49.5697 198.987 49.049C198.078 48.5283 197.367 47.806 196.853 46.882C196.347 45.958 196.094 44.8947 196.094 43.692C196.094 42.394 196.344 41.2683 196.842 40.315C197.341 39.3543 198.034 38.61 198.921 38.082C199.809 37.554 200.835 37.29 202.001 37.29C203.233 37.29 204.278 37.5797 205.136 38.159C206.002 38.731 206.643 39.5413 207.061 40.59C207.479 41.6387 207.637 42.8743 207.534 44.297H204.905V43.329C204.898 42.0383 204.671 41.096 204.223 40.502C203.776 39.908 203.072 39.611 202.111 39.611C201.026 39.611 200.219 39.9483 199.691 40.623C199.163 41.2903 198.899 42.2693 198.899 43.56C198.899 44.7627 199.163 45.694 199.691 46.354C200.219 47.014 200.989 47.344 202.001 47.344C202.654 47.344 203.215 47.201 203.684 46.915C204.161 46.6217 204.528 46.2 204.784 45.65L207.402 46.442C206.948 47.5127 206.244 48.345 205.29 48.939C204.344 49.533 203.299 49.83 202.155 49.83ZM198.063 44.297V42.295H206.236V44.297H198.063ZM214.393 49.5V33.66H217.077L224.425 44.825V33.66H227.109V49.5H224.425L217.077 38.335V49.5H214.393ZM235.431 49.83C234.243 49.83 233.205 49.5623 232.318 49.027C231.431 48.4917 230.741 47.7547 230.25 46.816C229.766 45.87 229.524 44.7847 229.524 43.56C229.524 42.3133 229.773 41.2207 230.272 40.282C230.771 39.3433 231.464 38.61 232.351 38.082C233.238 37.554 234.265 37.29 235.431 37.29C236.626 37.29 237.668 37.5577 238.555 38.093C239.442 38.6283 240.132 39.369 240.623 40.315C241.114 41.2537 241.36 42.3353 241.36 43.56C241.36 44.792 241.111 45.881 240.612 46.827C240.121 47.7657 239.431 48.5027 238.544 49.038C237.657 49.566 236.619 49.83 235.431 49.83ZM235.431 47.344C236.487 47.344 237.272 46.992 237.785 46.288C238.298 45.584 238.555 44.6747 238.555 43.56C238.555 42.4087 238.295 41.492 237.774 40.81C237.253 40.1207 236.472 39.776 235.431 39.776C234.72 39.776 234.133 39.9373 233.671 40.26C233.216 40.5753 232.879 41.019 232.659 41.591C232.439 42.1557 232.329 42.812 232.329 43.56C232.329 44.7113 232.589 45.6317 233.11 46.321C233.638 47.003 234.412 47.344 235.431 47.344ZM253.303 33.352C254.337 33.352 255.268 33.5977 256.097 34.089C256.926 34.573 257.578 35.2477 258.055 36.113C258.539 36.971 258.781 37.961 258.781 39.083V43.912C258.781 45.1073 258.539 46.1523 258.055 47.047C257.578 47.9343 256.907 48.62 256.042 49.104C255.177 49.588 254.165 49.83 253.006 49.83C252.207 49.83 251.451 49.6943 250.74 49.423C250.029 49.1443 249.391 48.719 248.826 48.147L250.729 46.288C251.015 46.618 251.356 46.8783 251.752 47.069C252.155 47.2523 252.573 47.344 253.006 47.344C253.622 47.344 254.161 47.201 254.623 46.915C255.085 46.6217 255.444 46.244 255.701 45.782C255.958 45.3127 256.086 44.8103 256.086 44.275V41.646L256.559 42.174C256.112 42.702 255.569 43.1163 254.931 43.417C254.293 43.7103 253.622 43.857 252.918 43.857C251.928 43.857 251.048 43.6297 250.278 43.175C249.515 42.7203 248.914 42.1043 248.474 41.327C248.041 40.5423 247.825 39.655 247.825 38.665C247.825 37.675 248.074 36.7803 248.573 35.981C249.072 35.1743 249.735 34.5363 250.564 34.067C251.4 33.5903 252.313 33.352 253.303 33.352ZM253.303 35.882C252.79 35.882 252.32 36.0067 251.895 36.256C251.47 36.5053 251.132 36.8427 250.883 37.268C250.634 37.686 250.509 38.1517 250.509 38.665C250.509 39.1783 250.63 39.6477 250.872 40.073C251.121 40.4983 251.455 40.8357 251.873 41.085C252.298 41.3343 252.768 41.459 253.281 41.459C253.794 41.459 254.264 41.3343 254.689 41.085C255.114 40.8357 255.452 40.4983 255.701 40.073C255.958 39.6477 256.086 39.1783 256.086 38.665C256.086 38.1663 255.961 37.708 255.712 37.29C255.463 36.8647 255.125 36.5237 254.7 36.267C254.282 36.0103 253.816 35.882 253.303 35.882Z" fill="black"/>
</g>
<defs>
<filter id="filter0_d_2476_3111" x="0" y="0" width="385" height="91" filterUnits="userSpaceOnUse" color-interpolation-filters="sRGB">
<feFlood flood-opacity="0" result="BackgroundImageFix"/>
<feColorMatrix in="SourceAlpha" type="matrix" values="0 0 0 0 0 0 0 0 0 0 0 0 0 0 0 0 0 0 127 0" result="hardAlpha"/>
<feOffset dy="4"/>
<feGaussianBlur stdDeviation="4"/>
<feComposite in2="hardAlpha" operator="out"/>
<feColorMatrix type="matrix" values="0 0 0 0 0 0 0 0 0 0 0 0 0 0 0 0 0 0 0.1 0"/>
<feBlend mode="normal" in2="BackgroundImageFix" result="effect1_dropShadow_2476_3111"/>
<feBlend mode="normal" in="SourceGraphic" in2="effect1_dropShadow_2476_3111" result="shape"/>
</filter>
</defs>
</svg>
